<svg width="85" height="85" viewBox="0 0 85 85" fill="none" xmlns="http://www.w3.org/2000/svg">
<mask id="mask0_75_670" style="mask-type:alpha" maskUnits="userSpaceOnUse" x="0" y="0" width="85" height="85">
<path d="M41.9132 9.44446C39.208 9.44446 36.8036 10.5653 35.279 12.2807C33.7545 13.996 33.06 16.1673 33.06 18.299C33.06 20.4306 33.7545 22.6019 35.279 24.3173C36.213 25.3682 37.5008 26.1569 38.9621 26.6405V27.4648C37.9257 27.6787 36.908 28.0019 35.9246 28.4448L12.7886 38.8616L12.7829 38.8673C10.3088 39.9891 9.228 42.4894 9.48019 44.8626H9.45137V58.4845C9.45137 60.087 10.3421 61.5895 11.8203 62.3238L30.9792 71.8124C37.8821 75.2292 45.9443 75.2292 52.8472 71.8124L71.9946 62.3353C73.4869 61.6038 74.375 60.0837 74.375 58.4845V44.8626H74.3347C74.5874 42.4837 73.5079 39.9785 71.0262 38.8616L47.8903 28.4448C46.9106 28.0036 45.8965 27.6845 44.8643 27.4706V26.6405C46.3256 26.1569 47.6134 25.3682 48.5473 24.3173C50.0719 22.6019 50.7664 20.4306 50.7664 18.299C50.7664 16.1673 50.0719 13.996 48.5473 12.2807C47.0228 10.5653 44.6183 9.44446 41.9132 9.44446ZM41.9132 15.3475C43.1428 15.3475 43.6894 15.7024 44.1323 16.2006C44.5751 16.6989 44.8643 17.4791 44.8643 18.299C44.8643 19.1189 44.5751 19.8991 44.1323 20.3973C43.6894 20.8956 43.1428 21.2505 41.9132 21.2505C40.6836 21.2505 40.137 20.8956 39.6941 20.3973C39.2513 19.8991 38.9621 19.1189 38.9621 18.299C38.9621 17.4791 39.2513 16.6989 39.6941 16.2006C40.137 15.7024 40.6836 15.3475 41.9132 15.3475ZM38.9621 33.6272V44.8626H44.8643V33.633C45.0628 33.7062 45.2676 33.7407 45.4637 33.829L68.5536 44.2227L48.8471 54.8816C44.4202 57.2763 39.4004 57.2763 34.9736 54.8816L15.2671 44.2227L38.3512 33.829C38.5512 33.7389 38.7596 33.7016 38.9621 33.6272ZM28.6334 41.9111C27.4593 41.9111 26.3334 42.222 25.5033 42.7756C24.6731 43.3291 24.2067 44.0798 24.2067 44.8626C24.2067 45.6454 24.6731 46.3961 25.5033 46.9496C26.3334 47.5031 27.4593 47.8141 28.6334 47.8141C29.8074 47.8141 30.9333 47.5031 31.7634 46.9496C32.5936 46.3961 33.06 45.6454 33.06 44.8626C33.06 44.0798 32.5936 43.3291 31.7634 42.7756C30.9333 42.222 29.8074 41.9111 28.6334 41.9111ZM15.3535 50.9789L32.1666 60.0755C38.2809 63.3831 45.5397 63.3831 51.654 60.0755H51.6598L68.4729 50.9789V57.4872L50.2304 66.5204C44.9571 69.1306 38.8693 69.1306 33.596 66.5204L15.3535 57.4872V50.9789Z" fill="black"/>
</mask>
<g mask="url(#mask0_75_670)">
<ellipse cx="41.9098" cy="51.9444" rx="57.2569" ry="51.9444" fill="url(#paint0_linear_75_670)"/>
</g>
<defs>
<linearGradient id="paint0_linear_75_670" x1="22.6667" y1="25.9048" x2="57.4762" y2="68" gradientUnits="userSpaceOnUse">
<stop stop-color="#00F0FF"/>
<stop offset="1" stop-color="#0CB6EC"/>
</linearGradient>
</defs>
</svg>
