<svg width="85" height="76" viewBox="0 0 85 76" fill="none" xmlns="http://www.w3.org/2000/svg">
<mask id="mask0_118_141" style="mask-type:alpha" maskUnits="userSpaceOnUse" x="0" y="0" width="85" height="76">
<path d="M36.5833 11.6288C33.4593 11.6288 30.4458 12.1635 27.6216 13.22C24.9748 14.2118 22.6239 15.609 20.6281 17.3727C16.9282 20.6456 14.8889 24.8371 14.8889 29.1752C14.8889 31.5987 15.5082 33.9575 16.7309 36.174C18.005 38.4897 19.9299 40.607 22.2926 42.3017C24.1702 43.6471 25.4324 45.8032 25.7677 48.2267C25.8229 48.632 25.8663 49.0374 25.9018 49.4427C26.0714 49.2745 26.2371 49.0977 26.4027 48.9166C27.8898 47.2952 29.8975 46.4026 31.9683 46.4026C32.2997 46.4026 32.6271 46.4242 32.9584 46.4716C34.1536 46.6355 35.3684 46.7217 36.5794 46.7217C39.7034 46.7217 42.7169 46.187 45.5412 45.1305C48.1879 44.1387 50.5388 42.7415 52.5386 40.9778C56.2385 37.7048 58.2778 33.5133 58.2778 29.1752C58.2778 24.8371 56.2385 20.6456 52.5386 17.3727C50.5427 15.6046 48.1879 14.2075 45.5412 13.22C42.7169 12.1635 39.7073 11.6288 36.5833 11.6288ZM36.5833 3.00431C52.9212 3.00431 66.1667 14.7206 66.1667 29.1752C66.1667 43.6298 52.9212 55.3462 36.5833 55.3462C35.0134 55.3462 33.4751 55.2384 31.9723 55.0271C25.6178 61.9482 18.2811 63.1858 10.9444 63.3712V61.6765C14.9047 59.5635 18.0957 55.717 18.0957 51.3185C18.0957 50.7062 18.0523 50.1025 17.9695 49.5117C11.2797 44.7122 7 37.3857 7 29.1709C7 14.7163 20.2454 3 36.5833 3V3.00431ZM68.3874 61.6679C68.3874 65.4368 70.6239 68.7356 74.0595 70.5468V72C67.705 71.8448 61.8712 70.7796 56.3608 64.8503C55.0591 65.0271 53.7219 65.122 52.3651 65.122C46.4799 65.122 41.0603 63.3885 36.7332 60.4691C45.6516 60.4346 54.0691 57.3125 60.4512 51.6635C63.6698 48.8175 66.2061 45.4755 67.9969 41.7368C69.8942 37.7695 70.8527 33.5435 70.8527 29.1752C70.8527 28.4723 70.8251 27.7695 70.7738 27.0752C75.2468 31.1114 78 36.6182 78 42.6855C78 49.7273 74.2922 56.0059 68.4939 60.1198C68.4229 60.6243 68.3874 61.1418 68.3874 61.6679Z" fill="black"/>
</mask>
<g mask="url(#mask0_118_141)">
<ellipse cx="42" cy="38" rx="60" ry="55" fill="url(#paint0_linear_118_141)"/>
</g>
<defs>
<linearGradient id="paint0_linear_118_141" x1="18.9863" y1="-17" x2="65.737" y2="93.0419" gradientUnits="userSpaceOnUse">
<stop stop-color="#1CABD9"/>
<stop offset="1" stop-color="#20D4DF"/>
</linearGradient>
</defs>
</svg>
