<svg xmlns="http://www.w3.org/2000/svg" width="75" height="75" viewBox="0 0 75 75" fill="none"><mask id="mask0_102_221" style="mask-type:alpha" maskUnits="userSpaceOnUse" x="0" y="0" width="75" height="75"><path d="M36.9822 8.33337C34.5953 8.33337 32.4737 9.32236 31.1285 10.8359C29.7833 12.3495 29.1705 14.2653 29.1705 16.1462C29.1705 18.0271 29.7833 19.9429 31.1285 21.4565C31.9526 22.3837 33.0889 23.0796 34.3783 23.5063V24.2337C33.4638 24.4224 32.5659 24.7076 31.6981 25.0984L11.284 34.2896L11.279 34.2947C9.09599 35.2845 8.14232 37.4907 8.36484 39.5847H8.33941V51.604C8.33941 53.018 9.12537 54.3437 10.4296 54.9916L27.3346 63.3639C33.4253 66.3787 40.5391 66.3787 46.6298 63.3639L63.5246 55.0018C64.8414 54.3564 65.625 53.015 65.625 51.604V39.5847H65.5894C65.8124 37.4857 64.8598 35.2751 62.6702 34.2896L42.2561 25.0984C41.3917 24.7091 40.4969 24.4275 39.5861 24.2388V23.5063C40.8755 23.0796 42.0117 22.3837 42.8359 21.4565C44.181 19.9429 44.7939 18.0271 44.7939 16.1462C44.7939 14.2653 44.181 12.3495 42.8359 10.8359C41.4907 9.32236 39.3691 8.33337 36.9822 8.33337ZM36.9822 13.5419C38.0671 13.5419 38.5495 13.8551 38.9402 14.2947C39.3309 14.7344 39.5861 15.4228 39.5861 16.1462C39.5861 16.8696 39.3309 17.558 38.9402 17.9977C38.5495 18.4373 38.0671 18.7505 36.9822 18.7505C35.8972 18.7505 35.4149 18.4373 35.0242 17.9977C34.6335 17.558 34.3783 16.8696 34.3783 16.1462C34.3783 15.4228 34.6335 14.7344 35.0242 14.2947C35.4149 13.8551 35.8972 13.5419 36.9822 13.5419ZM34.3783 29.6711V39.5847H39.5861V29.6762C39.7612 29.7408 39.942 29.7712 40.115 29.8492L60.4884 39.0201L43.1003 48.425C39.1942 50.538 34.7651 50.538 30.859 48.425L13.4709 39.0201L33.8392 29.8492C34.0158 29.7696 34.1996 29.7368 34.3783 29.6711ZM25.2647 36.9804C24.2288 36.9804 23.2353 37.2548 22.5029 37.7432C21.7704 38.2316 21.3589 38.894 21.3589 39.5847C21.3589 40.2754 21.7704 40.9378 22.5029 41.4262C23.2353 41.9146 24.2288 42.1889 25.2647 42.1889C26.3006 42.1889 27.294 41.9146 28.0265 41.4262C28.759 40.9378 29.1705 40.2754 29.1705 39.5847C29.1705 38.894 28.759 38.2316 28.0265 37.7432C27.294 37.2548 26.3006 36.9804 25.2647 36.9804ZM13.5472 44.9814L28.3822 53.0079C33.7773 55.9263 40.182 55.9263 45.5771 53.0079H45.5822L60.4172 44.9814V50.724L44.3209 58.6945C39.668 60.9976 34.2964 60.9976 29.6435 58.6945L13.5472 50.724V44.9814Z" fill="black"></path></mask><g mask="url(#mask0_102_221)"><ellipse cx="36.9792" cy="45.8333" rx="50.5208" ry="45.8333" fill="url(#paint0_linear_102_221)"></ellipse></g><defs><linearGradient id="paint0_linear_102_221" x1="20" y1="22.8571" x2="50.7143" y2="60" gradientUnits="userSpaceOnUse"><stop stop-color="#00F0FF"></stop><stop offset="1" stop-color="#0CB6EC"></stop></linearGradient></defs></svg>